<?xml version="1.0" encoding="utf-8"?>
<!-- Generator: Adobe Illustrator 27.0.0, SVG Export Plug-In . SVG Version: 6.00 Build 0)  -->
<svg version="1.1" id="Layer_1" xmlns="http://www.w3.org/2000/svg" xmlns:xlink="http://www.w3.org/1999/xlink" x="0px" y="0px"
	 viewBox="0 0 512.04 512.04" style="enable-background:new 0 0 512.04 512.04;" xml:space="preserve">
<style type="text/css">
	.st0{fill:#F2C020;}
</style>
<g id="Objects">
	<g>
		<polygon class="st0" points="512.04,256.02 472.58,299.12 492.61,354.03 439.61,378.67 437.06,437.06 378.67,439.61 
			354.03,492.61 299.12,472.58 256.02,512.04 212.92,472.58 158.02,492.61 133.38,439.61 74.99,437.06 72.43,378.67 19.43,354.03 
			39.46,299.12 0,256.02 39.46,212.92 19.43,158.02 72.43,133.38 74.99,74.99 133.38,72.43 158.02,19.43 212.92,39.46 256.02,0 
			299.12,39.46 354.03,19.43 378.67,72.43 437.06,74.99 439.61,133.38 492.61,158.02 472.58,212.92 		"/>
	</g>
</g>
</svg>
